<?xml version="1.0" encoding="UTF-8" standalone="no"?><svg xmlns="http://www.w3.org/2000/svg" xmlns:xlink="http://www.w3.org/1999/xlink" clip-rule="evenodd" stroke-miterlimit="10" viewBox="0 0 99 73"><desc>SVG generated by Keynote</desc><defs></defs><g transform="matrix(1.00, 0.00, -0.00, -1.00, 0.0, 73.0)"><path d="M 0.5 0.0 L 93.5 0.0 L 93.5 69.0 L 0.5 69.0 Z M 0.0 0.0 " fill="none" stroke="#FEFFFF" stroke-width="2.00" transform="matrix(1.00, 0.00, 0.00, -1.00, 2.5, 71.0)"></path><image xlink:href="../../69EDE2A1-B96B-4698-B0DD-F5179CA7E766/assets/4FD1EB6798025D66AF21F3D93D6BDDCA.png" width="83.00" height="23.00" transform="matrix(1.00, 0.00, -0.00, -1.00, 9.0, 61.0)"></image><g><clipPath id="clip0x7fb86a554770"><path d="M 0.9 -2.3 L 100.5 -2.3 L 100.5 71.7 L 0.9 71.7 Z M 0.9 -2.3 "></path></clipPath><g clip-path="url(#clip0x7fb86a554770)"><text xml:space="preserve" font-family="Helvetica-Light,Helvetica" font-size="24.0" fill="#FEFFFF" transform="matrix(1.00, 0.00, -0.00, -1.00, 8.7, 41.5)">D</text><text xml:space="preserve" font-family="Helvetica-Light,Helvetica" font-size="24.0" fill="#FEFFFF" transform="matrix(1.00, 0.00, -0.00, -1.00, 26.0, 41.5)">a</text><text xml:space="preserve" font-family="Helvetica-Light,Helvetica" font-size="24.0" fill="#FEFFFF" transform="matrix(1.00, 0.00, -0.00, -1.00, 39.3, 41.5)">t</text><text xml:space="preserve" font-family="Helvetica-Light,Helvetica" font-size="24.0" fill="#FEFFFF" transform="matrix(1.00, 0.00, -0.00, -1.00, 46.0, 41.5)">a</text><text xml:space="preserve" font-family="Helvetica-Light,Helvetica" font-size="24.0" fill="#FEFFFF" transform="matrix(1.00, 0.00, -0.00, -1.00, 59.3, 41.5)">C</text><text xml:space="preserve" font-family="Helvetica-Light,Helvetica" font-size="24.0" fill="#FEFFFF" transform="matrix(1.00, 0.00, -0.00, -1.00, 76.7, 41.5)">e</text></g></g><image xlink:href="../../69EDE2A1-B96B-4698-B0DD-F5179CA7E766/assets/41A6305CC951AFC311A792148C5C5D21.png" width="44.00" height="21.00" transform="matrix(1.00, 0.00, -0.00, -1.00, 29.0, 30.0)"></image><g><clipPath id="clip0x7fb86a559640"><path d="M 0.9 -2.3 L 100.5 -2.3 L 100.5 71.7 L 0.9 71.7 Z M 0.9 -2.3 "></path></clipPath><g clip-path="url(#clip0x7fb86a559640)"><text xml:space="preserve" font-family="Helvetica-Light,Helvetica" font-size="24.0" fill="#FEFFFF" transform="matrix(1.00, 0.00, -0.00, -1.00, 28.7, 12.5)">n</text><text xml:space="preserve" font-family="Helvetica-Light,Helvetica" font-size="24.0" fill="#FEFFFF" transform="matrix(1.00, 0.00, -0.00, -1.00, 42.0, 12.5)">t</text><text xml:space="preserve" font-family="Helvetica-Light,Helvetica" font-size="24.0" fill="#FEFFFF" transform="matrix(1.00, 0.00, -0.00, -1.00, 48.7, 12.5)">e</text><text xml:space="preserve" font-family="Helvetica-Light,Helvetica" font-size="24.0" fill="#FEFFFF" transform="matrix(1.00, 0.00, -0.00, -1.00, 62.0, 12.5)">r</text></g></g></g></svg>