<?xml version="1.0" encoding="UTF-8" standalone="no"?><svg xmlns="http://www.w3.org/2000/svg" xmlns:xlink="http://www.w3.org/1999/xlink" clip-rule="evenodd" stroke-miterlimit="10" viewBox="0 0 588 381"><desc>SVG generated by Keynote</desc><defs></defs><g transform="matrix(1.00, 0.00, -0.00, -1.00, 0.0, 381.0)"><g><clipPath id="clip0x7fb8687c3700"><path d="M 0.3 307.5 L 587.7 307.5 L 587.7 380.5 L 0.3 380.5 Z M 0.3 307.5 "></path></clipPath><g clip-path="url(#clip0x7fb8687c3700)"><path d="M -0.3 0.5 L 583.7 0.5 L 583.7 69.5 L -0.3 69.5 Z M 0.0 0.0 " fill="none" stroke="#FEFFFF" stroke-width="2.00" transform="matrix(1.00, 0.00, 0.00, -1.00, 2.3, 378.5)"></path></g></g><image xlink:href="../../45C406B1-04B1-4D8C-80FB-1CED911AB703/assets/CDB8B88C4AF5464AB2BFFD7CCEC8CCF1.png" width="25.00" height="23.00" transform="matrix(1.00, 0.00, -0.00, -1.00, 282.0, 354.0)"></image><g><clipPath id="clip0x7fb8687c8840"><path d="M 0.7 298.5 L 590.0 298.5 L 590.0 377.5 L 0.7 377.5 Z M 0.7 298.5 "></path></clipPath><g clip-path="url(#clip0x7fb8687c8840)"><text xml:space="preserve" font-family="Helvetica-Light,Helvetica" font-size="24.0" fill="#FEFFFF" transform="matrix(1.00, 0.00, -0.00, -1.00, 282.0, 335.0)">U</text><text xml:space="preserve" font-family="Helvetica-Light,Helvetica" font-size="24.0" fill="#FEFFFF" transform="matrix(1.00, 0.00, -0.00, -1.00, 299.3, 335.0)">I</text></g></g><g><clipPath id="clip0x7fb8687cb150"><path d="M 8.3 372.5 L 581.7 372.5 L 581.7 313.5 L 8.3 313.5 Z M 8.3 372.5 "></path></clipPath><g clip-path="url(#clip0x7fb8687cb150)"><g><clipPath id="clip0x7fb8687cb8a0"><path d="M 0.7 298.5 L 590.0 298.5 L 590.0 377.5 L 0.7 377.5 Z M 0.7 298.5 "></path></clipPath><g clip-path="url(#clip0x7fb8687cb8a0)"><path d="M 4.0 12.5 L 577.3 12.5 " fill="none" stroke="#000000" stroke-width="1.00" transform="matrix(1.00, 0.00, 0.00, -1.00, 3.3, 377.5)"></path><path d="M 4.0 54.5 L 577.3 54.5 " fill="none" stroke="#000000" stroke-width="1.00" transform="matrix(1.00, 0.00, 0.00, -1.00, 3.3, 377.5)"></path></g></g></g></g><g><clipPath id="clip0x7fb8687ccfe0"><path d="M 0.3 154.0 L 275.8 154.0 L 275.8 227.0 L 0.3 227.0 Z M 0.3 154.0 "></path></clipPath><g clip-path="url(#clip0x7fb8687ccfe0)"><path d="M -0.3 0.0 L 271.7 0.0 L 271.7 69.0 L -0.3 69.0 Z M 0.0 0.0 " fill="none" stroke="#FEFFFF" stroke-width="2.00" transform="matrix(1.00, 0.00, 0.00, -1.00, 2.3, 225.0)"></path></g></g><image xlink:href="DA71DCCAA28F37742F2AFD4900487ED3.png" width="62.00" height="27.00" transform="matrix(1.00, 0.00, -0.00, -1.00, 108.0, 200.0)"></image><g><clipPath id="clip0x7fb86a18aee0"><path d="M 0.7 145.0 L 278.1 145.0 L 278.1 224.0 L 0.7 224.0 Z M 0.7 145.0 "></path></clipPath><g clip-path="url(#clip0x7fb86a18aee0)"><text xml:space="preserve" font-family="Helvetica-Light,Helvetica" font-size="24.0" fill="#FEFFFF" transform="matrix(1.00, 0.00, -0.00, -1.00, 108.1, 181.5)">L</text><text xml:space="preserve" font-family="Helvetica-Light,Helvetica" font-size="24.0" fill="#FEFFFF" transform="matrix(1.00, 0.00, -0.00, -1.00, 121.4, 181.5)">o</text><text xml:space="preserve" font-family="Helvetica-Light,Helvetica" font-size="24.0" fill="#FEFFFF" transform="matrix(1.00, 0.00, -0.00, -1.00, 134.7, 181.5)">g</text><text xml:space="preserve" font-family="Helvetica-Light,Helvetica" font-size="24.0" fill="#FEFFFF" transform="matrix(1.00, 0.00, -0.00, -1.00, 149.4, 181.5)">i</text><text xml:space="preserve" font-family="Helvetica-Light,Helvetica" font-size="24.0" fill="#FEFFFF" transform="matrix(1.00, 0.00, -0.00, -1.00, 154.7, 181.5)">c</text></g></g><g><clipPath id="clip0x7fb86a191140"><path d="M 8.3 219.0 L 269.8 219.0 L 269.8 160.0 L 8.3 160.0 Z M 8.3 219.0 "></path></clipPath><g clip-path="url(#clip0x7fb86a191140)"><g><clipPath id="clip0x7fb86a191910"><path d="M 0.7 145.0 L 278.1 145.0 L 278.1 224.0 L 0.7 224.0 Z M 0.7 145.0 "></path></clipPath><g clip-path="url(#clip0x7fb86a191910)"><path d="M 4.0 12.5 L 265.5 12.5 " fill="none" stroke="#000000" stroke-width="1.00" transform="matrix(1.00, 0.00, 0.00, -1.00, 3.3, 224.0)"></path><path d="M 4.0 54.5 L 265.5 54.5 " fill="none" stroke="#000000" stroke-width="1.00" transform="matrix(1.00, 0.00, 0.00, -1.00, 3.3, 224.0)"></path></g></g></g></g><g><clipPath id="clip0x7fb86a193000"><path d="M 0.3 0.5 L 587.7 0.5 L 587.7 73.5 L 0.3 73.5 Z M 0.3 0.5 "></path></clipPath><g clip-path="url(#clip0x7fb86a193000)"><path d="M -0.3 0.5 L 583.7 0.5 L 583.7 69.5 L -0.3 69.5 Z M 0.0 0.0 " fill="none" stroke="#FEFFFF" stroke-width="2.00" transform="matrix(1.00, 0.00, 0.00, -1.00, 2.3, 71.5)"></path></g></g><image xlink:href="../../45C406B1-04B1-4D8C-80FB-1CED911AB703/assets/23E8C55753C25FFFCC90039B6873D453.png" width="164.00" height="27.00" transform="matrix(1.00, 0.00, -0.00, -1.00, 213.0, 47.0)"></image><g><clipPath id="clip0x7fb86a195f30"><path d="M 0.7 -8.5 L 590.0 -8.5 L 590.0 70.5 L 0.7 70.5 Z M 0.7 -8.5 "></path></clipPath><g clip-path="url(#clip0x7fb86a195f30)"><text xml:space="preserve" font-family="Helvetica-Light,Helvetica" font-size="24.0" fill="#FEFFFF" transform="matrix(1.00, 0.00, -0.00, -1.00, 213.6, 28.0)">S</text><text xml:space="preserve" font-family="Helvetica-Light,Helvetica" font-size="24.0" fill="#FEFFFF" transform="matrix(1.00, 0.00, -0.00, -1.00, 228.2, 28.0)">u</text><text xml:space="preserve" font-family="Helvetica-Light,Helvetica" font-size="24.0" fill="#FEFFFF" transform="matrix(1.00, 0.00, -0.00, -1.00, 241.6, 28.0)">p</text><text xml:space="preserve" font-family="Helvetica-Light,Helvetica" font-size="24.0" fill="#FEFFFF" transform="matrix(1.00, 0.00, -0.00, -1.00, 256.2, 28.0)">p</text><text xml:space="preserve" font-family="Helvetica-Light,Helvetica" font-size="24.0" fill="#FEFFFF" transform="matrix(1.00, 0.00, -0.00, -1.00, 270.9, 28.0)">o</text><text xml:space="preserve" font-family="Helvetica-Light,Helvetica" font-size="24.0" fill="#FEFFFF" transform="matrix(1.00, 0.00, -0.00, -1.00, 284.2, 28.0)">r</text><text xml:space="preserve" font-family="Helvetica-Light,Helvetica" font-size="24.0" fill="#FEFFFF" transform="matrix(1.00, 0.00, -0.00, -1.00, 292.7, 28.0)">t</text><text xml:space="preserve" font-family="Helvetica-Light,Helvetica" font-size="24.0" fill="#FEFFFF" transform="matrix(1.00, 0.00, -0.00, -1.00, 299.3, 28.0)">L</text><text xml:space="preserve" font-family="Helvetica-Light,Helvetica" font-size="24.0" fill="#FEFFFF" transform="matrix(1.00, 0.00, -0.00, -1.00, 312.7, 28.0)">i</text><text xml:space="preserve" font-family="Helvetica-Light,Helvetica" font-size="24.0" fill="#FEFFFF" transform="matrix(1.00, 0.00, -0.00, -1.00, 318.0, 28.0)">b</text><text xml:space="preserve" font-family="Helvetica-Light,Helvetica" font-size="24.0" fill="#FEFFFF" transform="matrix(1.00, 0.00, -0.00, -1.00, 332.7, 28.0)">r</text><text xml:space="preserve" font-family="Helvetica-Light,Helvetica" font-size="24.0" fill="#FEFFFF" transform="matrix(1.00, 0.00, -0.00, -1.00, 340.7, 28.0)">a</text><text xml:space="preserve" font-family="Helvetica-Light,Helvetica" font-size="24.0" fill="#FEFFFF" transform="matrix(1.00, 0.00, -0.00, -1.00, 354.0, 28.0)">r</text><text xml:space="preserve" font-family="Helvetica-Light,Helvetica" font-size="24.0" fill="#FEFFFF" transform="matrix(1.00, 0.00, -0.00, -1.00, 362.4, 28.0)">y</text></g></g><g><clipPath id="clip0x7fb86a19b680"><path d="M 8.3 65.5 L 581.7 65.5 L 581.7 6.5 L 8.3 6.5 Z M 8.3 65.5 "></path></clipPath><g clip-path="url(#clip0x7fb86a19b680)"><g><clipPath id="clip0x7fb86a19bde0"><path d="M 0.7 -8.5 L 590.0 -8.5 L 590.0 70.5 L 0.7 70.5 Z M 0.7 -8.5 "></path></clipPath><g clip-path="url(#clip0x7fb86a19bde0)"><path d="M 4.0 12.5 L 577.3 12.5 " fill="none" stroke="#000000" stroke-width="1.00" transform="matrix(1.00, 0.00, 0.00, -1.00, 3.3, 70.5)"></path><path d="M 4.0 54.5 L 577.3 54.5 " fill="none" stroke="#000000" stroke-width="1.00" transform="matrix(1.00, 0.00, 0.00, -1.00, 3.3, 70.5)"></path></g></g></g></g></g></svg>