<?xml version="1.0" encoding="UTF-8" standalone="no"?><svg xmlns="http://www.w3.org/2000/svg" xmlns:xlink="http://www.w3.org/1999/xlink" clip-rule="evenodd" stroke-miterlimit="10" viewBox="0 0 131 73"><desc>SVG generated by Keynote</desc><defs></defs><g transform="matrix(1.00, 0.00, -0.00, -1.00, 0.0, 73.0)"><path d="M 0.1 0.0 L 125.1 0.0 L 125.1 69.0 L 0.1 69.0 Z M 0.0 0.0 " fill="none" stroke="#FEFFFF" stroke-width="2.00" transform="matrix(1.00, 0.00, 0.00, -1.00, 2.9, 71.0)"></path><image xlink:href="96379BDAD912FF54AA359D58981829F3.png" width="118.00" height="23.00" transform="matrix(1.00, 0.00, -0.00, -1.00, 8.0, 47.0)"></image><g><clipPath id="clip0x7fb868517a30"><path d="M 1.2 -9.0 L 132.6 -9.0 L 132.6 70.0 L 1.2 70.0 Z M 1.2 -9.0 "></path></clipPath><g clip-path="url(#clip0x7fb868517a30)"><text xml:space="preserve" font-family="Helvetica-Light,Helvetica" font-size="24.0" fill="#FEFFFF" transform="matrix(1.00, 0.00, -0.00, -1.00, 7.9, 27.5)">D</text><text xml:space="preserve" font-family="Helvetica-Light,Helvetica" font-size="24.0" fill="#FEFFFF" transform="matrix(1.00, 0.00, -0.00, -1.00, 24.4, 27.5)">a</text><text xml:space="preserve" font-family="Helvetica-Light,Helvetica" font-size="24.0" fill="#FEFFFF" transform="matrix(1.00, 0.00, -0.00, -1.00, 36.9, 27.5)">t</text><text xml:space="preserve" font-family="Helvetica-Light,Helvetica" font-size="24.0" fill="#FEFFFF" transform="matrix(1.00, 0.00, -0.00, -1.00, 42.8, 27.5)">a</text><text xml:space="preserve" font-family="Helvetica-Light,Helvetica" font-size="24.0" fill="#FEFFFF" transform="matrix(1.00, 0.00, -0.00, -1.00, 55.3, 27.5)">C</text><text xml:space="preserve" font-family="Helvetica-Light,Helvetica" font-size="24.0" fill="#FEFFFF" transform="matrix(1.00, 0.00, -0.00, -1.00, 71.8, 27.5)">e</text><text xml:space="preserve" font-family="Helvetica-Light,Helvetica" font-size="24.0" fill="#FEFFFF" transform="matrix(1.00, 0.00, -0.00, -1.00, 84.4, 27.5)">n</text><text xml:space="preserve" font-family="Helvetica-Light,Helvetica" font-size="24.0" fill="#FEFFFF" transform="matrix(1.00, 0.00, -0.00, -1.00, 96.9, 27.5)">t</text><text xml:space="preserve" font-family="Helvetica-Light,Helvetica" font-size="24.0" fill="#FEFFFF" transform="matrix(1.00, 0.00, -0.00, -1.00, 102.7, 27.5)">e</text><text xml:space="preserve" font-family="Helvetica-Light,Helvetica" font-size="24.0" fill="#FEFFFF" transform="matrix(1.00, 0.00, -0.00, -1.00, 115.3, 27.5)">r</text></g></g><g><clipPath id="clip0x7fb86851c9c0"><path d="M 8.9 65.0 L 124.3 65.0 L 124.3 6.0 L 8.9 6.0 Z M 8.9 65.0 "></path></clipPath><g clip-path="url(#clip0x7fb86851c9c0)"><g><clipPath id="clip0x7fb86851d0b0"><path d="M 1.2 -9.0 L 132.6 -9.0 L 132.6 70.0 L 1.2 70.0 Z M 1.2 -9.0 "></path></clipPath><g clip-path="url(#clip0x7fb86851d0b0)"><path d="M 4.0 12.5 L 119.4 12.5 " fill="none" stroke="#000000" stroke-width="1.00" transform="matrix(1.00, 0.00, 0.00, -1.00, 3.9, 70.0)"></path><path d="M 4.0 54.5 L 119.4 54.5 " fill="none" stroke="#000000" stroke-width="1.00" transform="matrix(1.00, 0.00, 0.00, -1.00, 3.9, 70.0)"></path></g></g></g></g></g></svg>