<?xml version="1.0" encoding="UTF-8" standalone="no"?><svg xmlns="http://www.w3.org/2000/svg" xmlns:xlink="http://www.w3.org/1999/xlink" clip-rule="evenodd" stroke-miterlimit="10" viewBox="0 0 130 73"><desc>SVG generated by Keynote</desc><defs></defs><g transform="matrix(1.00, 0.00, -0.00, -1.00, 0.0, 73.0)"><path d="M -0.4 0.0 L 125.6 0.0 L 125.6 69.0 L -0.4 69.0 Z M 0.0 0.0 " fill="none" stroke="#FEFFFF" stroke-width="2.00" transform="matrix(1.00, 0.00, 0.00, -1.00, 2.4, 71.0)"></path><image xlink:href="74DBD625471114FEC281E905F2851C09.png" width="96.00" height="23.00" transform="matrix(1.00, 0.00, -0.00, -1.00, 19.0, 47.0)"></image><g><clipPath id="clip0x7fb8684e8980"><path d="M 0.8 -9.0 L 132.1 -9.0 L 132.1 70.0 L 0.8 70.0 Z M 0.8 -9.0 "></path></clipPath><g clip-path="url(#clip0x7fb8684e8980)"><text xml:space="preserve" font-family="Helvetica-Light,Helvetica" font-size="24.0" fill="#FEFFFF" transform="matrix(1.00, 0.00, -0.00, -1.00, 17.5, 27.5)">I</text><text xml:space="preserve" font-family="Helvetica-Light,Helvetica" font-size="24.0" fill="#FEFFFF" transform="matrix(1.00, 0.00, -0.00, -1.00, 24.2, 27.5)">n</text><text xml:space="preserve" font-family="Helvetica-Light,Helvetica" font-size="24.0" fill="#FEFFFF" transform="matrix(1.00, 0.00, -0.00, -1.00, 37.6, 27.5)">t</text><text xml:space="preserve" font-family="Helvetica-Light,Helvetica" font-size="24.0" fill="#FEFFFF" transform="matrix(1.00, 0.00, -0.00, -1.00, 44.2, 27.5)">e</text><text xml:space="preserve" font-family="Helvetica-Light,Helvetica" font-size="24.0" fill="#FEFFFF" transform="matrix(1.00, 0.00, -0.00, -1.00, 57.6, 27.5)">r</text><text xml:space="preserve" font-family="Helvetica-Light,Helvetica" font-size="24.0" fill="#FEFFFF" transform="matrix(1.00, 0.00, -0.00, -1.00, 66.0, 27.5)">f</text><text xml:space="preserve" font-family="Helvetica-Light,Helvetica" font-size="24.0" fill="#FEFFFF" transform="matrix(1.00, 0.00, -0.00, -1.00, 72.7, 27.5)">a</text><text xml:space="preserve" font-family="Helvetica-Light,Helvetica" font-size="24.0" fill="#FEFFFF" transform="matrix(1.00, 0.00, -0.00, -1.00, 86.0, 27.5)">c</text><text xml:space="preserve" font-family="Helvetica-Light,Helvetica" font-size="24.0" fill="#FEFFFF" transform="matrix(1.00, 0.00, -0.00, -1.00, 99.4, 27.5)">e</text></g></g><g><clipPath id="clip0x7fb8684ef070"><path d="M 8.4 65.0 L 123.8 65.0 L 123.8 6.0 L 8.4 6.0 Z M 8.4 65.0 "></path></clipPath><g clip-path="url(#clip0x7fb8684ef070)"><g><clipPath id="clip0x7fb8684ef7e0"><path d="M 0.8 -9.0 L 132.1 -9.0 L 132.1 70.0 L 0.8 70.0 Z M 0.8 -9.0 "></path></clipPath><g clip-path="url(#clip0x7fb8684ef7e0)"><path d="M 4.0 12.5 L 119.4 12.5 " fill="none" stroke="#000000" stroke-width="1.00" transform="matrix(1.00, 0.00, 0.00, -1.00, 3.4, 70.0)"></path><path d="M 4.0 54.5 L 119.4 54.5 " fill="none" stroke="#000000" stroke-width="1.00" transform="matrix(1.00, 0.00, 0.00, -1.00, 3.4, 70.0)"></path></g></g></g></g></g></svg>