<?xml version="1.0" encoding="UTF-8" standalone="no"?><svg xmlns="http://www.w3.org/2000/svg" xmlns:xlink="http://www.w3.org/1999/xlink" clip-rule="evenodd" stroke-miterlimit="10" viewBox="0 0 166 73"><desc>SVG generated by Keynote</desc><defs></defs><g transform="matrix(1.00, 0.00, -0.00, -1.00, 0.0, 73.0)"><path d="M -0.3 0.0 L 160.7 0.0 L 160.7 69.0 L -0.3 69.0 Z M 0.0 0.0 " fill="none" stroke="#FEFFFF" stroke-width="2.00" transform="matrix(1.00, 0.00, 0.00, -1.00, 2.3, 71.0)"></path><image xlink:href="27EB795F788AA7806795243DC81BAE88.png" width="97.00" height="23.00" transform="matrix(1.00, 0.00, -0.00, -1.00, 36.0, 47.0)"></image><g><clipPath id="clip0x7fb86a39d260"><path d="M 0.7 -9.0 L 167.4 -9.0 L 167.4 70.0 L 0.7 70.0 Z M 0.7 -9.0 "></path></clipPath><g clip-path="url(#clip0x7fb86a39d260)"><text xml:space="preserve" font-family="Helvetica-Light,Helvetica" font-size="24.0" fill="#FEFFFF" transform="matrix(1.00, 0.00, -0.00, -1.00, 35.1, 27.5)">I</text><text xml:space="preserve" font-family="Helvetica-Light,Helvetica" font-size="24.0" fill="#FEFFFF" transform="matrix(1.00, 0.00, -0.00, -1.00, 41.8, 27.5)">n</text><text xml:space="preserve" font-family="Helvetica-Light,Helvetica" font-size="24.0" fill="#FEFFFF" transform="matrix(1.00, 0.00, -0.00, -1.00, 55.2, 27.5)">t</text><text xml:space="preserve" font-family="Helvetica-Light,Helvetica" font-size="24.0" fill="#FEFFFF" transform="matrix(1.00, 0.00, -0.00, -1.00, 61.8, 27.5)">e</text><text xml:space="preserve" font-family="Helvetica-Light,Helvetica" font-size="24.0" fill="#FEFFFF" transform="matrix(1.00, 0.00, -0.00, -1.00, 75.2, 27.5)">r</text><text xml:space="preserve" font-family="Helvetica-Light,Helvetica" font-size="24.0" fill="#FEFFFF" transform="matrix(1.00, 0.00, -0.00, -1.00, 83.6, 27.5)">f</text><text xml:space="preserve" font-family="Helvetica-Light,Helvetica" font-size="24.0" fill="#FEFFFF" transform="matrix(1.00, 0.00, -0.00, -1.00, 90.3, 27.5)">a</text><text xml:space="preserve" font-family="Helvetica-Light,Helvetica" font-size="24.0" fill="#FEFFFF" transform="matrix(1.00, 0.00, -0.00, -1.00, 103.6, 27.5)">c</text><text xml:space="preserve" font-family="Helvetica-Light,Helvetica" font-size="24.0" fill="#FEFFFF" transform="matrix(1.00, 0.00, -0.00, -1.00, 117.0, 27.5)">e</text></g></g><g><clipPath id="clip0x7fb86a3a2740"><path d="M 8.3 65.0 L 159.1 65.0 L 159.1 6.0 L 8.3 6.0 Z M 8.3 65.0 "></path></clipPath><g clip-path="url(#clip0x7fb86a3a2740)"><g><clipPath id="clip0x7fb86a3a2e90"><path d="M 0.7 -9.0 L 167.4 -9.0 L 167.4 70.0 L 0.7 70.0 Z M 0.7 -9.0 "></path></clipPath><g clip-path="url(#clip0x7fb86a3a2e90)"><path d="M 4.0 12.5 L 154.8 12.5 " fill="none" stroke="#000000" stroke-width="1.00" transform="matrix(1.00, 0.00, 0.00, -1.00, 3.3, 70.0)"></path><path d="M 4.0 54.5 L 154.8 54.5 " fill="none" stroke="#000000" stroke-width="1.00" transform="matrix(1.00, 0.00, 0.00, -1.00, 3.3, 70.0)"></path></g></g></g></g></g></svg>