<?xml version="1.0" encoding="UTF-8" standalone="no"?><svg xmlns="http://www.w3.org/2000/svg" xmlns:xlink="http://www.w3.org/1999/xlink" clip-rule="evenodd" stroke-miterlimit="10" viewBox="0 0 305 73"><desc>SVG generated by Keynote</desc><defs></defs><g transform="matrix(1.00, 0.00, -0.00, -1.00, 0.0, 73.0)"><path d="M -0.3 0.0 L 299.7 0.0 L 299.7 69.0 L -0.3 69.0 Z M 0.0 0.0 " fill="none" stroke="#FEFFFF" stroke-width="2.00" transform="matrix(1.00, 0.00, 0.00, -1.00, 2.3, 71.0)"></path><image xlink:href="../../9D8FDED3-8E27-404A-8481-3E1C2547CE03/assets/6124EE06DE58F47F8A4815E42708BEC3.png" width="62.00" height="27.00" transform="matrix(1.00, 0.00, -0.00, -1.00, 123.0, 46.0)"></image><g><clipPath id="clip0x7fb86a15b450"><path d="M 0.7 -9.0 L 306.7 -9.0 L 306.7 70.0 L 0.7 70.0 Z M 0.7 -9.0 "></path></clipPath><g clip-path="url(#clip0x7fb86a15b450)"><text xml:space="preserve" font-family="Helvetica-Light,Helvetica" font-size="24.0" fill="#FEFFFF" transform="matrix(1.00, 0.00, -0.00, -1.00, 122.3, 27.5)">L</text><text xml:space="preserve" font-family="Helvetica-Light,Helvetica" font-size="24.0" fill="#FEFFFF" transform="matrix(1.00, 0.00, -0.00, -1.00, 135.7, 27.5)">o</text><text xml:space="preserve" font-family="Helvetica-Light,Helvetica" font-size="24.0" fill="#FEFFFF" transform="matrix(1.00, 0.00, -0.00, -1.00, 149.0, 27.5)">g</text><text xml:space="preserve" font-family="Helvetica-Light,Helvetica" font-size="24.0" fill="#FEFFFF" transform="matrix(1.00, 0.00, -0.00, -1.00, 163.7, 27.5)">i</text><text xml:space="preserve" font-family="Helvetica-Light,Helvetica" font-size="24.0" fill="#FEFFFF" transform="matrix(1.00, 0.00, -0.00, -1.00, 169.0, 27.5)">c</text></g></g><g><clipPath id="clip0x7fb86a15ee50"><path d="M 8.3 65.0 L 298.3 65.0 L 298.3 6.0 L 8.3 6.0 Z M 8.3 65.0 "></path></clipPath><g clip-path="url(#clip0x7fb86a15ee50)"><g><clipPath id="clip0x7fb86a15f530"><path d="M 0.7 -9.0 L 306.7 -9.0 L 306.7 70.0 L 0.7 70.0 Z M 0.7 -9.0 "></path></clipPath><g clip-path="url(#clip0x7fb86a15f530)"><path d="M 4.0 12.5 L 294.0 12.5 " fill="none" stroke="#000000" stroke-width="1.00" transform="matrix(1.00, 0.00, 0.00, -1.00, 3.3, 70.0)"></path><path d="M 4.0 54.5 L 294.0 54.5 " fill="none" stroke="#000000" stroke-width="1.00" transform="matrix(1.00, 0.00, 0.00, -1.00, 3.3, 70.0)"></path></g></g></g></g></g></svg>