<?xml version="1.0" encoding="UTF-8" standalone="no"?><svg xmlns="http://www.w3.org/2000/svg" xmlns:xlink="http://www.w3.org/1999/xlink" clip-rule="evenodd" stroke-miterlimit="10" viewBox="0 0 130 73"><desc>SVG generated by Keynote</desc><defs></defs><g transform="matrix(1.00, 0.00, -0.00, -1.00, 0.0, 73.0)"><path d="M 0.5 0.0 L 125.5 0.0 L 125.5 69.0 L 0.5 69.0 Z M 0.0 0.0 " fill="none" stroke="#FEFFFF" stroke-width="2.00" transform="matrix(1.00, 0.00, 0.00, -1.00, 2.5, 71.0)"></path><image xlink:href="58269EC0C4791784F38E394013826F84.png" width="62.00" height="27.00" transform="matrix(1.00, 0.00, -0.00, -1.00, 36.0, 46.0)"></image><g><clipPath id="clip0x7fb868504fb0"><path d="M 0.8 -9.0 L 132.2 -9.0 L 132.2 70.0 L 0.8 70.0 Z M 0.8 -9.0 "></path></clipPath><g clip-path="url(#clip0x7fb868504fb0)"><text xml:space="preserve" font-family="Helvetica-Light,Helvetica" font-size="24.0" fill="#FEFFFF" transform="matrix(1.00, 0.00, -0.00, -1.00, 35.2, 27.5)">L</text><text xml:space="preserve" font-family="Helvetica-Light,Helvetica" font-size="24.0" fill="#FEFFFF" transform="matrix(1.00, 0.00, -0.00, -1.00, 48.5, 27.5)">o</text><text xml:space="preserve" font-family="Helvetica-Light,Helvetica" font-size="24.0" fill="#FEFFFF" transform="matrix(1.00, 0.00, -0.00, -1.00, 61.9, 27.5)">g</text><text xml:space="preserve" font-family="Helvetica-Light,Helvetica" font-size="24.0" fill="#FEFFFF" transform="matrix(1.00, 0.00, -0.00, -1.00, 76.5, 27.5)">i</text><text xml:space="preserve" font-family="Helvetica-Light,Helvetica" font-size="24.0" fill="#FEFFFF" transform="matrix(1.00, 0.00, -0.00, -1.00, 81.8, 27.5)">c</text></g></g><g><clipPath id="clip0x7fb86850acc0"><path d="M 8.5 65.0 L 123.9 65.0 L 123.9 6.0 L 8.5 6.0 Z M 8.5 65.0 "></path></clipPath><g clip-path="url(#clip0x7fb86850acc0)"><g><clipPath id="clip0x7fb86850b400"><path d="M 0.8 -9.0 L 132.2 -9.0 L 132.2 70.0 L 0.8 70.0 Z M 0.8 -9.0 "></path></clipPath><g clip-path="url(#clip0x7fb86850b400)"><path d="M 4.0 12.5 L 119.4 12.5 " fill="none" stroke="#000000" stroke-width="1.00" transform="matrix(1.00, 0.00, 0.00, -1.00, 3.5, 70.0)"></path><path d="M 4.0 54.5 L 119.4 54.5 " fill="none" stroke="#000000" stroke-width="1.00" transform="matrix(1.00, 0.00, 0.00, -1.00, 3.5, 70.0)"></path></g></g></g></g></g></svg>