<?xml version="1.0" encoding="UTF-8" standalone="no"?><svg xmlns="http://www.w3.org/2000/svg" xmlns:xlink="http://www.w3.org/1999/xlink" clip-rule="evenodd" stroke-miterlimit="10" viewBox="0 0 588 74"><desc>SVG generated by Keynote</desc><defs></defs><g transform="matrix(1.00, 0.00, -0.00, -1.00, 0.0, 74.0)"><path d="M -0.3 0.5 L 583.7 0.5 L 583.7 69.5 L -0.3 69.5 Z M 0.0 0.0 " fill="none" stroke="#FEFFFF" stroke-width="2.00" transform="matrix(1.00, 0.00, 0.00, -1.00, 2.3, 71.5)"></path><image xlink:href="CDB8B88C4AF5464AB2BFFD7CCEC8CCF1.png" width="25.00" height="23.00" transform="matrix(1.00, 0.00, -0.00, -1.00, 282.0, 47.0)"></image><g><clipPath id="clip0x7fb8684e4930"><path d="M 0.7 -8.5 L 590.0 -8.5 L 590.0 70.5 L 0.7 70.5 Z M 0.7 -8.5 "></path></clipPath><g clip-path="url(#clip0x7fb8684e4930)"><text xml:space="preserve" font-family="Helvetica-Light,Helvetica" font-size="24.0" fill="#FEFFFF" transform="matrix(1.00, 0.00, -0.00, -1.00, 282.0, 28.0)">U</text><text xml:space="preserve" font-family="Helvetica-Light,Helvetica" font-size="24.0" fill="#FEFFFF" transform="matrix(1.00, 0.00, -0.00, -1.00, 299.3, 28.0)">I</text></g></g><g><clipPath id="clip0x7fb8684e6550"><path d="M 8.3 65.5 L 581.7 65.5 L 581.7 6.5 L 8.3 6.5 Z M 8.3 65.5 "></path></clipPath><g clip-path="url(#clip0x7fb8684e6550)"><g><clipPath id="clip0x7fb8684e6c70"><path d="M 0.7 -8.5 L 590.0 -8.5 L 590.0 70.5 L 0.7 70.5 Z M 0.7 -8.5 "></path></clipPath><g clip-path="url(#clip0x7fb8684e6c70)"><path d="M 4.0 12.5 L 577.3 12.5 " fill="none" stroke="#000000" stroke-width="1.00" transform="matrix(1.00, 0.00, 0.00, -1.00, 3.3, 70.5)"></path><path d="M 4.0 54.5 L 577.3 54.5 " fill="none" stroke="#000000" stroke-width="1.00" transform="matrix(1.00, 0.00, 0.00, -1.00, 3.3, 70.5)"></path></g></g></g></g></g></svg>