<?xml version="1.0" encoding="UTF-8" standalone="no"?><svg xmlns="http://www.w3.org/2000/svg" xmlns:xlink="http://www.w3.org/1999/xlink" clip-rule="evenodd" stroke-miterlimit="10" viewBox="0 0 588 74"><desc>SVG generated by Keynote</desc><defs></defs><g transform="matrix(1.00, 0.00, -0.00, -1.00, 0.0, 74.0)"><path d="M -0.3 0.5 L 583.7 0.5 L 583.7 69.5 L -0.3 69.5 Z M 0.0 0.0 " fill="none" stroke="#FEFFFF" stroke-width="2.00" transform="matrix(1.00, 0.00, 0.00, -1.00, 2.3, 71.5)"></path><image xlink:href="23E8C55753C25FFFCC90039B6873D453.png" width="164.00" height="27.00" transform="matrix(1.00, 0.00, -0.00, -1.00, 213.0, 47.0)"></image><g><clipPath id="clip0x7fb86851f1b0"><path d="M 0.7 -8.5 L 590.0 -8.5 L 590.0 70.5 L 0.7 70.5 Z M 0.7 -8.5 "></path></clipPath><g clip-path="url(#clip0x7fb86851f1b0)"><text xml:space="preserve" font-family="Helvetica-Light,Helvetica" font-size="24.0" fill="#FEFFFF" transform="matrix(1.00, 0.00, -0.00, -1.00, 213.6, 28.0)">S</text><text xml:space="preserve" font-family="Helvetica-Light,Helvetica" font-size="24.0" fill="#FEFFFF" transform="matrix(1.00, 0.00, -0.00, -1.00, 228.2, 28.0)">u</text><text xml:space="preserve" font-family="Helvetica-Light,Helvetica" font-size="24.0" fill="#FEFFFF" transform="matrix(1.00, 0.00, -0.00, -1.00, 241.6, 28.0)">p</text><text xml:space="preserve" font-family="Helvetica-Light,Helvetica" font-size="24.0" fill="#FEFFFF" transform="matrix(1.00, 0.00, -0.00, -1.00, 256.2, 28.0)">p</text><text xml:space="preserve" font-family="Helvetica-Light,Helvetica" font-size="24.0" fill="#FEFFFF" transform="matrix(1.00, 0.00, -0.00, -1.00, 270.9, 28.0)">o</text><text xml:space="preserve" font-family="Helvetica-Light,Helvetica" font-size="24.0" fill="#FEFFFF" transform="matrix(1.00, 0.00, -0.00, -1.00, 284.2, 28.0)">r</text><text xml:space="preserve" font-family="Helvetica-Light,Helvetica" font-size="24.0" fill="#FEFFFF" transform="matrix(1.00, 0.00, -0.00, -1.00, 292.7, 28.0)">t</text><text xml:space="preserve" font-family="Helvetica-Light,Helvetica" font-size="24.0" fill="#FEFFFF" transform="matrix(1.00, 0.00, -0.00, -1.00, 299.3, 28.0)">L</text><text xml:space="preserve" font-family="Helvetica-Light,Helvetica" font-size="24.0" fill="#FEFFFF" transform="matrix(1.00, 0.00, -0.00, -1.00, 312.7, 28.0)">i</text><text xml:space="preserve" font-family="Helvetica-Light,Helvetica" font-size="24.0" fill="#FEFFFF" transform="matrix(1.00, 0.00, -0.00, -1.00, 318.0, 28.0)">b</text><text xml:space="preserve" font-family="Helvetica-Light,Helvetica" font-size="24.0" fill="#FEFFFF" transform="matrix(1.00, 0.00, -0.00, -1.00, 332.7, 28.0)">r</text><text xml:space="preserve" font-family="Helvetica-Light,Helvetica" font-size="24.0" fill="#FEFFFF" transform="matrix(1.00, 0.00, -0.00, -1.00, 340.7, 28.0)">a</text><text xml:space="preserve" font-family="Helvetica-Light,Helvetica" font-size="24.0" fill="#FEFFFF" transform="matrix(1.00, 0.00, -0.00, -1.00, 354.0, 28.0)">r</text><text xml:space="preserve" font-family="Helvetica-Light,Helvetica" font-size="24.0" fill="#FEFFFF" transform="matrix(1.00, 0.00, -0.00, -1.00, 362.4, 28.0)">y</text></g></g><g><clipPath id="clip0x7fb868525140"><path d="M 8.3 65.5 L 581.7 65.5 L 581.7 6.5 L 8.3 6.5 Z M 8.3 65.5 "></path></clipPath><g clip-path="url(#clip0x7fb868525140)"><g><clipPath id="clip0x7fb8685258c0"><path d="M 0.7 -8.5 L 590.0 -8.5 L 590.0 70.5 L 0.7 70.5 Z M 0.7 -8.5 "></path></clipPath><g clip-path="url(#clip0x7fb8685258c0)"><path d="M 4.0 12.5 L 577.3 12.5 " fill="none" stroke="#000000" stroke-width="1.00" transform="matrix(1.00, 0.00, 0.00, -1.00, 3.3, 70.5)"></path><path d="M 4.0 54.5 L 577.3 54.5 " fill="none" stroke="#000000" stroke-width="1.00" transform="matrix(1.00, 0.00, 0.00, -1.00, 3.3, 70.5)"></path></g></g></g></g></g></svg>